<svg width="1729" height="190" viewBox="0 0 1729 190" fill="none" xmlns="http://www.w3.org/2000/svg">
<path d="M1738.75 115.725H-14.2451V189.725H1738.75V115.725Z" fill="#FDD882"/>
<path d="M926.281 115.725L899.755 152.008L926.281 189.725H953.755L927.229 152.008L953.755 115.725H926.281Z" fill="#EB6E40" fill-opacity="0.28"/>
<path d="M980.281 115.725L953.755 152.008L980.281 189.725H1007.75L981.229 152.008L1007.75 115.725H980.281Z" fill="#EB6E40" fill-opacity="0.28"/>
<path d="M745.281 115.725L718.755 152.008L745.281 189.725H772.755L746.229 152.008L772.755 115.725H745.281Z" fill="#EB6E40" fill-opacity="0.28"/>
<path d="M799.281 115.725L772.755 152.008L799.281 189.725H826.755L800.229 152.008L826.755 115.725H799.281Z" fill="#EB6E40" fill-opacity="0.28"/>
<path d="M564.281 115.725L537.755 152.008L564.281 189.725H591.755L565.229 152.008L591.755 115.725H564.281Z" fill="#EB6E40" fill-opacity="0.28"/>
<path d="M618.281 115.725L591.755 152.008L618.281 189.725H645.755L619.229 152.008L645.755 115.725H618.281Z" fill="#EB6E40" fill-opacity="0.28"/>
<path d="M383.281 115.725L356.755 152.008L383.281 189.725H410.755L384.229 152.008L410.755 115.725H383.281Z" fill="#EB6E40" fill-opacity="0.28"/>
<path d="M437.281 115.725L410.755 152.008L437.281 189.725H464.755L438.229 152.008L464.755 115.725H437.281Z" fill="#EB6E40" fill-opacity="0.28"/>
<path d="M202.281 115.725L175.755 152.008L202.281 189.725H229.755L203.229 152.008L229.755 115.725H202.281Z" fill="#EB6E40" fill-opacity="0.28"/>
<path d="M256.281 115.725L229.755 152.008L256.281 189.725H283.755L257.229 152.008L283.755 115.725H256.281Z" fill="#EB6E40" fill-opacity="0.28"/>
<path d="M21.2812 115.725L-5.24512 152.008L21.2812 189.725H48.7549L22.2285 152.008L48.7549 115.725H21.2812Z" fill="#EB6E40" fill-opacity="0.28"/>
<path d="M75.2812 115.725L48.7549 152.008L75.2812 189.725H102.755L76.2285 152.008L102.755 115.725H75.2812Z" fill="#EB6E40" fill-opacity="0.28"/>
<path d="M1107.28 115.725L1080.75 152.008L1107.28 189.725H1134.75L1108.23 152.008L1134.75 115.725H1107.28Z" fill="#EB6E40" fill-opacity="0.28"/>
<path d="M1161.28 115.725L1134.75 152.008L1161.28 189.725H1188.75L1162.23 152.008L1188.75 115.725H1161.28Z" fill="#EB6E40" fill-opacity="0.28"/>
<path d="M1107.28 115.725L1080.75 152.008L1107.28 189.725H1134.75L1108.23 152.008L1134.75 115.725H1107.28Z" fill="#EB6E40" fill-opacity="0.28"/>
<path d="M1161.28 115.725L1134.75 152.008L1161.28 189.725H1188.75L1162.23 152.008L1188.75 115.725H1161.28Z" fill="#EB6E40" fill-opacity="0.28"/>
<path d="M1288.28 115.725L1261.75 152.008L1288.28 189.725H1315.75L1289.23 152.008L1315.75 115.725H1288.28Z" fill="#EB6E40" fill-opacity="0.28"/>
<path d="M1342.28 115.725L1315.75 152.008L1342.28 189.725H1369.75L1343.23 152.008L1369.75 115.725H1342.28Z" fill="#EB6E40" fill-opacity="0.28"/>
<path d="M1469.28 115.725L1442.75 152.008L1469.28 189.725H1496.75L1470.23 152.008L1496.75 115.725H1469.28Z" fill="#EB6E40" fill-opacity="0.28"/>
<path d="M1523.28 115.725L1496.75 152.008L1523.28 189.725H1550.75L1524.23 152.008L1550.75 115.725H1523.28Z" fill="#EB6E40" fill-opacity="0.28"/>
<path d="M1650.28 115.725L1623.75 152.008L1650.28 189.725H1677.75L1651.23 152.008L1677.75 115.725H1650.28Z" fill="#EB6E40" fill-opacity="0.28"/>
<path d="M1704.28 115.725L1677.75 152.008L1704.28 189.725H1731.75L1705.23 152.008L1731.75 115.725H1704.28Z" fill="#EB6E40" fill-opacity="0.28"/>
<path d="M-18.7085 0L1734.02 30.5941L1732.73 104.583L-20 73.9887L-18.7085 0Z" fill="#544FFF"/>
<path d="M793.641 14.1796L819.53 50.9209L792.35 88.1684L764.88 87.6889L792.061 50.4414L766.172 13.7001L793.641 14.1796Z" fill="#7FB0FF" fill-opacity="0.38"/>
<path d="M739.65 13.2372L765.539 49.9785L738.358 87.2259L710.889 86.7464L738.069 49.499L712.18 12.7577L739.65 13.2372Z" fill="#7FB0FF" fill-opacity="0.38"/>
<path d="M974.614 17.3385L1000.5 54.0798L973.322 91.3272L945.853 90.8478L973.033 53.6003L947.144 16.859L974.614 17.3385Z" fill="#7FB0FF" fill-opacity="0.38"/>
<path d="M920.622 16.3961L946.511 53.1374L919.331 90.3848L891.861 89.9053L919.042 52.6579L893.153 15.9166L920.622 16.3961Z" fill="#7FB0FF" fill-opacity="0.38"/>
<path d="M1155.59 20.4974L1181.48 57.2387L1154.29 94.4861L1126.83 94.0066L1154.01 56.7592L1128.12 20.0179L1155.59 20.4974Z" fill="#7FB0FF" fill-opacity="0.38"/>
<path d="M1101.59 19.555L1127.48 56.2963L1100.3 93.5437L1072.83 93.0642L1100.01 55.8168L1074.13 19.0755L1101.59 19.555Z" fill="#7FB0FF" fill-opacity="0.38"/>
<path d="M1336.56 23.6563L1362.45 60.3976L1335.27 97.645L1307.8 97.1655L1334.98 59.9181L1309.09 23.1768L1336.56 23.6563Z" fill="#7FB0FF" fill-opacity="0.38"/>
<path d="M1282.57 22.7138L1308.46 59.4551L1281.28 96.7026L1253.81 96.2231L1280.99 58.9757L1255.1 22.2344L1282.57 22.7138Z" fill="#7FB0FF" fill-opacity="0.38"/>
<path d="M1517.53 26.8152L1543.42 63.5565L1516.24 100.804L1488.77 100.324L1515.95 63.077L1490.06 26.3357L1517.53 26.8152Z" fill="#7FB0FF" fill-opacity="0.38"/>
<path d="M1463.54 25.8727L1489.43 62.614L1462.25 99.8615L1434.78 99.382L1461.96 62.1345L1436.07 25.3933L1463.54 25.8727Z" fill="#7FB0FF" fill-opacity="0.38"/>
<path d="M1698.5 29.974L1724.39 66.7153L1697.21 103.963L1669.74 103.483L1696.92 66.2359L1671.03 29.4946L1698.5 29.974Z" fill="#7FB0FF" fill-opacity="0.38"/>
<path d="M1644.51 29.0316L1670.4 65.7729L1643.22 103.02L1615.75 102.541L1642.93 65.2934L1617.04 28.5521L1644.51 29.0316Z" fill="#7FB0FF" fill-opacity="0.38"/>
<path d="M612.669 11.0207L638.558 47.762L611.378 85.0095L583.908 84.53L611.089 47.2825L585.2 10.5413L612.669 11.0207Z" fill="#7FB0FF" fill-opacity="0.38"/>
<path d="M558.677 10.0783L584.566 46.8196L557.386 84.067L529.916 83.5876L557.097 46.3401L531.208 9.59882L558.677 10.0783Z" fill="#7FB0FF" fill-opacity="0.38"/>
<path d="M612.669 11.0207L638.558 47.762L611.378 85.0095L583.908 84.53L611.089 47.2825L585.2 10.5413L612.669 11.0207Z" fill="#7FB0FF" fill-opacity="0.38"/>
<path d="M558.677 10.0783L584.566 46.8196L557.386 84.067L529.916 83.5876L557.097 46.3401L531.208 9.59882L558.677 10.0783Z" fill="#7FB0FF" fill-opacity="0.38"/>
<path d="M431.697 7.86185L457.586 44.6031L430.405 81.8506L402.936 81.3711L430.116 44.1237L404.227 7.38237L431.697 7.86185Z" fill="#7FB0FF" fill-opacity="0.38"/>
<path d="M377.705 6.91942L403.594 43.6607L376.413 80.9082L348.944 80.4287L376.124 43.1812L350.235 6.43994L377.705 6.91942Z" fill="#7FB0FF" fill-opacity="0.38"/>
<path d="M250.724 4.70296L276.613 41.4443L249.433 78.6917L221.963 78.2122L249.144 40.9648L223.255 4.22348L250.724 4.70296Z" fill="#7FB0FF" fill-opacity="0.38"/>
<path d="M196.732 3.76053L222.621 40.5018L195.441 77.7493L167.971 77.2698L195.152 40.0223L169.263 3.28105L196.732 3.76053Z" fill="#7FB0FF" fill-opacity="0.38"/>
<path d="M69.7517 1.54408L95.6407 38.2854L68.4602 75.5328L40.9907 75.0533L68.1712 37.8059L42.2822 1.0646L69.7517 1.54408Z" fill="#7FB0FF" fill-opacity="0.38"/>
<path d="M15.7599 0.601649L41.649 37.3429L14.4685 74.5904L-13.001 74.1109L14.1795 36.8635L-11.7096 0.122167L15.7599 0.601649Z" fill="#7FB0FF" fill-opacity="0.38"/>
<g clip-path="url(#clip0_2462_253)">
<rect x="-0.267334" y="92.1582" width="1753" height="74" transform="rotate(-2 -0.267334 92.1582)" fill="#4FD9FF"/>
<path d="M484.911 75.2153L512.687 110.551L487.493 149.17L460.036 150.129L485.23 111.51L457.454 76.1741L484.911 75.2153Z" fill="#330023" fill-opacity="0.25"/>
<path d="M538.878 73.3308L566.654 108.667L541.46 147.286L514.003 148.245L539.197 109.626L511.421 74.2896L538.878 73.3308Z" fill="#330023" fill-opacity="0.25"/>
<path d="M52.7766 106.124L52.7733 106.028L57.2414 110.194L57.5329 118.541L53.3663 123.009L53.4769 126.175L44.8659 135.409L24.5263 136.12L25.1227 153.197L23.0856 155.382L14.5469 155.68L12.8013 105.694L7.61621 111.255L7.31803 102.716L47.6135 101.309L52.7766 106.124ZM47.5038 122.926L47.4079 122.929L47.0561 112.855L44.2759 110.263L23.6485 110.983L24.208 127.005L44.3557 126.302L47.5038 122.926ZM104.188 132.377L116.405 152.123L105.179 152.515L92.6582 132.3L78.8426 132.782L79.563 153.41L69.681 153.755L68.5017 119.983L62.761 126.139L62.3791 115.202L68.0271 109.145L67.7189 100.319L103.121 99.0823L112.256 107.601L112.799 123.143L104.188 132.377ZM102.231 120.342L101.899 110.844L99.1155 108.156L71.8681 109.107L72.1161 116.207L77.946 109.855L78.4519 124.343L98.8874 123.629L102.231 120.342ZM161.728 111.541L162.381 130.249L168.125 124.189L168.678 140.019L162.938 146.175L158.675 150.647L124.136 151.853L128.303 147.385L122.444 141.922L121.329 109.973L131.977 98.5549L156.346 97.7039L161.41 102.426L165.58 106.315L166.176 106.87L161.728 111.541ZM152.191 121.768L157.561 116.009L157.414 111.787L152.052 106.787L136.894 107.317L131.801 112.778L132.699 138.49L134.784 140.434L132.84 142.52L132.006 143.413L147.645 142.867L152.737 137.406L152.191 121.768ZM210.16 127.716L205.438 132.78L205.626 138.153L210.351 133.185L210.539 138.558L200.535 149.185L180.004 149.902L170.872 141.48L172.447 139.792L178.187 133.636L184.247 139.38L195.089 139.001L198.792 135.029L197.432 96.077L209.041 95.6716L210.16 127.716ZM260.968 103.752L229.979 104.835L230.374 116.156L257.43 115.211L257.782 125.285L230.726 126.229L230.931 132.082L225.19 138.238L255.699 137.173L262.352 143.376L262.479 147.022L215.468 148.664L220.19 143.6L218.511 95.533L260.63 94.0622L260.968 103.752ZM310.269 127.967L317.815 135.003L307.997 145.432L284.492 146.253L284.297 146.164L284.3 146.26L278.735 146.454L281.516 143.571L273.57 136.068L272.953 118.415L268.787 122.883L268.579 116.935L266.891 115.361L266.573 106.246L278.705 93.335L306.049 92.3801L315.581 101.269L308.636 108.716L301.487 102.049L283.163 102.689L278.626 107.554L278.79 112.256L282.953 107.691L283.771 131.101L288.735 135.731L288.643 135.83L303.322 135.317L310.269 127.967ZM319.787 91.5161L366.319 89.8912L360.856 95.7494L361.013 100.259L348.733 100.688L349.004 108.459L347.797 109.654L347.615 109.948L344.838 112.927L345.525 132.595L348.302 129.616L348.487 129.418L349.691 128.127L350.244 143.957L339.115 144.346L338.951 139.645L334.414 144.51L333.934 144.527L333.264 125.338L338.26 119.881L337.604 101.076L320.142 101.686L319.787 91.5161ZM412.942 113.719L414.335 115.111L417.115 117.703L417.206 120.294L410.265 127.837L410.268 127.933L414.435 131.725L417.487 128.353L417.681 133.918L416.941 134.712L410.734 141.268L410.178 141.864L379.477 142.936L378.422 142.973L373.72 143.137L376.498 140.159L370.64 134.696L377.955 126.852L383.816 132.41L384.607 133.055L394.393 132.714L400.504 126.16L404.3 122.089L400.829 118.945L400.925 118.941L400.253 118.965L400.061 118.971L396.223 119.105L380.013 119.768L371.771 112.082L371.319 99.1303L374.742 95.3606L379.93 89.8962L408.041 88.9145L408.935 89.7479L416.477 96.6888L409.166 104.629L403.007 98.7922L386.505 99.3685L383.542 102.546L383.736 108.11L386.218 110.425L390.824 110.264L399.938 109.946L404.927 109.772L408.093 109.661L408.477 109.648L408.576 109.741L408.573 109.645L412.942 113.719ZM406.427 127.971L406.28 123.749L405.817 124.246L400.632 129.806L398.039 132.586L402.26 132.439L406.427 127.971Z" fill="#330023" fill-opacity="0.25"/>
<path d="M1086.54 54.2058L1114.32 89.5418L1089.13 128.161L1061.67 129.12L1086.86 90.5006L1059.09 55.1646L1086.54 54.2058Z" fill="#330023" fill-opacity="0.25"/>
<path d="M1140.51 52.3213L1168.29 87.6573L1143.09 126.276L1115.64 127.235L1140.83 88.6161L1113.05 53.2801L1140.51 52.3213Z" fill="#330023" fill-opacity="0.25"/>
<path d="M654.41 85.114L654.406 85.0181L658.874 89.1847L659.166 97.5316L654.999 102L655.11 105.166L646.499 114.4L626.159 115.11L626.756 132.188L624.719 134.372L616.18 134.67L614.434 84.6849L609.249 90.2452L608.951 81.7064L649.247 80.2993L654.41 85.114ZM649.137 101.916L649.041 101.92L648.689 91.8458L645.909 89.2532L625.282 89.9736L625.841 105.996L645.989 105.292L649.137 101.916ZM705.821 111.368L718.038 131.113L706.812 131.505L694.291 111.29L680.476 111.773L681.196 132.4L671.314 132.745L670.135 98.9737L664.394 105.13L664.012 94.1925L669.66 88.1356L669.352 79.309L704.754 78.0727L713.889 86.5911L714.432 102.134L705.821 111.368ZM703.864 99.3328L703.532 89.8346L700.749 87.1461L673.501 88.0976L673.749 95.1972L679.579 88.8459L680.085 103.333L700.52 102.619L703.864 99.3328ZM763.361 90.531L764.014 109.24L769.758 103.179L770.311 119.01L764.571 125.166L760.308 129.637L725.769 130.843L729.936 126.375L724.077 120.912L722.962 88.964L733.61 77.5454L757.979 76.6944L763.043 81.4165L767.213 85.3054L767.809 85.8609L763.361 90.531ZM753.824 100.758L759.195 94.9991L759.047 90.7777L753.685 85.7778L738.527 86.3071L733.434 91.7682L734.332 117.481L736.417 119.425L734.473 121.51L733.639 122.404L749.278 121.858L754.37 116.397L753.824 100.758ZM811.793 106.707L807.071 111.77L807.259 117.143L811.984 112.175L812.172 117.548L802.169 128.176L781.637 128.893L772.506 120.47L774.08 118.782L779.82 112.626L785.88 118.37L796.722 117.991L800.425 114.02L799.065 75.0675L810.674 74.6621L811.793 106.707ZM862.601 82.7428L831.612 83.825L832.007 95.1461L859.063 94.2013L859.415 104.275L832.359 105.22L832.564 111.072L826.823 117.228L857.332 116.163L863.985 122.367L864.112 126.012L817.101 127.654L821.823 122.59L820.145 74.5235L862.263 73.0527L862.601 82.7428ZM911.902 106.957L919.449 113.994L909.631 124.423L886.125 125.244L885.93 125.155L885.933 125.25L880.368 125.445L883.149 122.562L875.203 115.059L874.586 97.4055L870.42 101.874L870.212 95.9252L868.524 94.3512L868.206 85.2367L880.339 72.3254L907.682 71.3706L917.214 80.2594L910.27 87.7062L903.121 81.0397L884.796 81.6796L880.259 86.5449L880.423 91.246L884.586 86.682L885.404 110.092L890.368 114.721L890.276 114.821L904.955 114.308L911.902 106.957ZM921.42 70.5066L967.952 68.8817L962.489 74.7399L962.647 79.2492L950.366 79.678L950.637 87.4493L949.43 88.6441L949.249 88.9386L946.471 91.9174L947.158 111.585L949.935 108.607L950.121 108.408L951.324 107.117L951.877 122.948L940.748 123.336L940.584 118.635L936.047 123.5L935.567 123.517L934.897 104.329L939.893 98.8712L939.237 80.0666L921.775 80.6764L921.42 70.5066ZM1014.57 92.7091L1015.97 94.1013L1018.75 96.6939L1018.84 99.2843L1011.9 106.827L1011.9 106.923L1016.07 110.716L1019.12 107.343L1019.31 112.908L1018.57 113.702L1012.37 120.259L1011.81 120.855L981.11 121.927L980.055 121.964L975.353 122.128L978.131 119.149L972.273 113.686L979.588 105.842L985.449 111.401L986.24 112.046L996.026 111.704L1002.14 105.151L1005.93 101.08L1002.46 97.935L1002.56 97.9317L1001.89 97.9551L1001.69 97.9618L997.856 98.0958L981.646 98.758L973.404 91.0729L972.952 78.1208L976.375 74.3511L981.563 68.8867L1009.67 67.905L1010.57 68.7383L1018.11 75.6793L1010.8 83.6193L1004.64 77.7827L988.138 78.359L985.175 81.5363L985.369 87.1009L987.851 89.4157L992.457 89.2549L1001.57 88.9366L1006.56 88.7624L1009.73 88.6518L1010.11 88.6384L1010.21 88.731L1010.21 88.6351L1014.57 92.7091ZM1008.06 106.961L1007.91 102.74L1007.45 103.236L1002.26 108.797L999.672 111.577L1003.89 111.429L1008.06 106.961Z" fill="#330023" fill-opacity="0.25"/>
<path d="M1688.18 33.1963L1715.95 68.5323L1690.76 107.151L1663.3 108.11L1688.5 69.4911L1660.72 34.1551L1688.18 33.1963Z" fill="#330023" fill-opacity="0.25"/>
<path d="M1742.14 31.3117L1769.92 66.6478L1744.73 105.267L1717.27 106.225L1742.46 67.6066L1714.69 32.2706L1742.14 31.3117Z" fill="#330023" fill-opacity="0.25"/>
<path d="M1256.04 64.1045L1256.04 64.0086L1260.51 68.1752L1260.8 76.5221L1256.63 80.9902L1256.74 84.1563L1248.13 93.3904L1227.79 94.1007L1228.39 111.178L1226.35 113.363L1217.81 113.661L1216.07 63.6754L1210.88 69.2357L1210.58 60.6969L1250.88 59.2898L1256.04 64.1045ZM1250.77 80.9068L1250.67 80.9101L1250.32 70.8363L1247.54 68.2437L1226.91 68.964L1227.47 84.9863L1247.62 84.2827L1250.77 80.9068ZM1307.45 90.3583L1319.67 110.104L1308.45 110.496L1295.92 90.2806L1282.11 90.7631L1282.83 111.39L1272.95 111.736L1271.77 77.9642L1266.03 84.1203L1265.65 73.1829L1271.29 67.1261L1270.99 58.2995L1306.39 57.0632L1315.52 65.5816L1316.07 81.1241L1307.45 90.3583ZM1305.5 78.3233L1305.17 68.825L1302.38 66.1366L1275.13 67.0881L1275.38 74.1877L1281.21 67.8364L1281.72 82.3236L1302.15 81.6099L1305.5 78.3233ZM1364.99 69.5215L1365.65 88.2301L1371.39 82.1699L1371.94 98.0003L1366.2 104.156L1361.94 108.628L1327.4 109.834L1331.57 105.366L1325.71 99.903L1324.6 67.9544L1335.24 56.5359L1359.61 55.6849L1364.68 60.407L1368.85 64.2959L1369.44 64.8514L1364.99 69.5215ZM1355.46 79.7485L1360.83 73.9896L1360.68 69.7682L1355.32 64.7683L1340.16 65.2976L1335.07 70.7587L1335.97 96.471L1338.05 98.4154L1336.11 100.501L1335.27 101.394L1350.91 100.848L1356 95.387L1355.46 79.7485ZM1413.43 85.6971L1408.7 90.761L1408.89 96.1337L1413.62 91.1657L1413.81 96.5385L1403.8 107.166L1383.27 107.883L1374.14 99.4606L1375.71 97.7726L1381.45 91.6165L1387.51 97.3605L1398.36 96.9819L1402.06 93.0103L1400.7 54.058L1412.31 53.6526L1413.43 85.6971ZM1464.23 61.7333L1433.25 62.8155L1433.64 74.1366L1460.7 73.1918L1461.05 83.2656L1433.99 84.2104L1434.2 90.0629L1428.46 96.2189L1458.97 95.1535L1465.62 101.357L1465.75 105.003L1418.73 106.645L1423.46 101.581L1421.78 53.514L1463.9 52.0432L1464.23 61.7333ZM1513.54 85.9475L1521.08 92.9844L1511.26 103.413L1487.76 104.234L1487.56 104.145L1487.57 104.241L1482 104.435L1484.78 101.552L1476.84 94.0492L1476.22 76.396L1472.05 80.8641L1471.85 74.9157L1470.16 73.3417L1469.84 64.2272L1481.97 51.3159L1509.32 50.3611L1518.85 59.2498L1511.9 66.6967L1504.75 60.0302L1486.43 60.6701L1481.89 65.5354L1482.06 70.2365L1486.22 65.6724L1487.04 89.0822L1492 93.7117L1491.91 93.811L1506.59 93.2984L1513.54 85.9475ZM1523.05 49.4971L1569.59 47.8722L1564.12 53.7304L1564.28 58.2396L1552 58.6685L1552.27 66.4397L1551.06 67.6346L1550.88 67.9291L1548.1 70.9079L1548.79 90.5759L1551.57 87.5971L1551.75 87.3986L1552.96 86.1078L1553.51 101.938L1542.38 102.327L1542.22 97.6256L1537.68 102.491L1537.2 102.508L1536.53 83.3194L1541.53 77.8617L1540.87 59.0571L1523.41 59.6669L1523.05 49.4971ZM1616.21 71.6996L1617.6 73.0918L1620.38 75.6843L1620.47 78.2748L1613.53 85.8176L1613.53 85.9135L1617.7 89.7064L1620.75 86.3339L1620.95 91.8985L1620.21 92.6928L1614 99.2494L1613.44 99.8452L1582.74 100.917L1581.69 100.954L1576.99 101.118L1579.76 98.1395L1573.91 92.6767L1581.22 84.8326L1587.08 90.3914L1587.87 91.0362L1597.66 90.6945L1603.77 84.1412L1607.57 80.0702L1604.09 76.9255L1604.19 76.9221L1603.52 76.9456L1603.33 76.9523L1599.49 77.0863L1583.28 77.7485L1575.04 70.0634L1574.59 57.1113L1578.01 53.3415L1583.2 47.8771L1611.31 46.8955L1612.2 47.7288L1619.74 54.6698L1612.43 62.6098L1606.27 56.7732L1589.77 57.3495L1586.81 60.5268L1587 66.0914L1589.48 68.4062L1594.09 68.2454L1603.2 67.9271L1608.19 67.7529L1611.36 67.6423L1611.74 67.6289L1611.84 67.7215L1611.84 67.6256L1616.21 71.6996ZM1609.69 85.9516L1609.55 81.7302L1609.08 82.2266L1603.9 87.787L1601.31 90.5672L1605.53 90.4197L1609.69 85.9516Z" fill="#330023" fill-opacity="0.25"/>
</g>
<defs>
<clipPath id="clip0_2462_253">
<rect width="1753" height="74" fill="white" transform="translate(-0.267334 92.1582) rotate(-2)"/>
</clipPath>
</defs>
</svg>
